<svg width="273" height="104" viewBox="0 0 273 104" fill="none" xmlns="http://www.w3.org/2000/svg">
<path d="M51.1511 56.4487L54.8838 66.2066C56.9034 71.4831 58.7065 75.703 58.9415 75.703C58.9454 75.703 58.9489 75.7015 58.9519 75.6992C59.2102 75.4961 66.5162 56.6093 66.5162 56.6093H80.6763L63.593 100.92H53.7511C53.7511 100.92 43.2462 73.9121 43.2892 73.8094L32.3237 100.58H22.5808L5.71268 56.4487L19.8039 56.4568C19.8039 56.4568 27.5228 75.9337 27.6257 75.9337C27.6262 75.9337 27.6262 75.9333 27.6266 75.933L35.3288 56.4483H51.1511V56.4487ZM0.901947 53.3801L2.45228 57.4363L19.3204 101.567L20.1147 103.645H22.5812H32.3241H34.7342L35.5599 101.63L43.1738 83.0422C43.83 84.7415 44.5391 86.573 45.2481 88.403C47.8696 95.1692 50.4967 101.923 50.4967 101.923L51.2992 103.986H53.7515H63.5934H66.0526L66.8508 101.915L83.9342 57.605L85.5 53.5433H80.6763H66.5162H64.0597L63.2597 55.6113C61.9793 58.9207 60.28 63.2881 58.827 66.9845C58.6079 66.4239 58.3797 65.8344 58.1438 65.2174L54.4115 55.4599L53.6168 53.3824H51.1511H35.3292H32.8898L32.08 55.4308L27.5797 66.8155C26.093 63.0957 24.3696 58.7608 23.0522 55.4366L22.242 53.3923L19.8065 53.3908L5.71526 53.3828L0.901947 53.3801Z" fill="#FFE81F"/>
<path d="M269.231 56.2766L269.199 67.8909C269.199 67.8909 255.145 67.8492 248 67.8492C245.623 67.8492 244.011 67.8541 243.934 67.8664C242.703 68.0661 241.919 70.3966 242.268 71.4195C242.44 71.9369 243.728 73.627 245.122 75.1791C246.513 76.7316 248.799 79.2726 250.194 80.8239C253.776 84.8024 254.267 85.5877 254.598 87.8722C255.136 91.5824 253.165 95.5985 249.505 98.2467C245.838 100.903 245.999 100.921 218.773 100.921C218.378 100.921 217.983 100.921 217.577 100.921C201.019 100.918 192.262 100.795 190.987 100.542C188.723 100.086 185.115 97.4649 175.579 89.3209C172.149 86.3944 168.988 83.8321 168.825 83.8313C168.821 83.8313 168.819 83.8336 168.819 83.8374L168.707 100.922L153.251 100.861L153.156 56.7956H172.646H187.624C198.013 57.1294 205.044 66.3422 203.644 72.2174C203.326 73.5507 202.516 75.483 201.844 76.5098C200.462 78.6176 196.945 81.3233 194.09 82.4849C193.036 82.9096 192.175 83.404 192.175 83.5803C192.175 84.2356 195.645 87.2782 196.945 87.7615C198.055 88.175 201.289 88.267 215.548 88.267C217.219 88.267 218.737 88.2677 220.115 88.2677C234.449 88.2677 233.728 88.1758 234.835 86.0675C235.61 84.5997 235.02 83.7221 229.566 78.2531C222.655 72.1323 223.379 69.2005 223.332 67.0351C223.233 64.4406 225.528 56.2778 237.458 56.2778L269.231 56.2766ZM176.637 76.6347C183.255 76.6347 184.598 76.5431 186.006 75.9985C190.759 74.1589 191.013 68.7249 186.454 66.3135C185.455 65.7842 184.172 65.6968 176.999 65.662L168.699 65.6233C168.768 65.6807 168.673 76.1894 168.673 76.1894C168.673 76.1894 170.752 76.6347 176.637 76.6347ZM272.684 53.2107H269.23H237.457C230.555 53.2107 226.472 55.6359 224.263 57.6705C220.67 60.9791 219.823 65.1454 219.888 67.1095C219.892 67.2731 219.89 67.441 219.887 67.6161C219.856 70.8082 220.384 74.4218 227.06 80.3575C228.379 81.6805 230.587 83.8984 231.421 85.0006C229.597 85.2002 224.972 85.2002 220.115 85.2002H218.052L215.548 85.1995C206.978 85.1995 199.752 85.1776 198.271 84.9174C198.064 84.7971 197.774 84.5901 197.454 84.3433C200.415 82.7203 203.408 80.2046 204.818 78.0535C205.673 76.7454 206.617 74.5111 207.013 72.8536C207.891 69.1648 206.442 64.715 203.138 60.9469C199.282 56.5507 193.672 53.9205 187.748 53.7304L187.686 53.7281H187.623H172.645H153.155H149.703L149.71 56.8005L149.805 100.866L149.812 103.912L153.235 103.926L168.69 103.987L172.129 104L172.149 100.939L172.216 90.7037C172.532 90.9704 172.858 91.2475 173.193 91.5334C183.624 100.44 187.125 102.908 190.226 103.532C191.078 103.701 192.487 103.981 217.574 103.987H218.771C232.352 103.987 239.169 103.987 243.224 103.639C247.869 103.239 249.363 102.301 251.603 100.678L251.677 100.624C256.277 97.2947 258.705 92.2577 258.012 87.4786C257.561 84.3705 256.637 83.0794 252.88 78.9062L251.763 77.6645C250.454 76.2085 248.873 74.4502 247.813 73.2667C246.958 72.3147 246.286 71.4697 245.881 70.9163C246.413 70.9151 247.104 70.9144 247.998 70.9144C255.057 70.9144 269.046 70.9558 269.186 70.9565L272.634 70.9665L272.642 67.8974L272.674 56.2828L272.684 53.2107ZM172.139 73.4568C172.144 72.6823 172.149 71.8138 172.155 70.9439C172.159 70.1774 172.163 69.4093 172.165 68.7057L176.981 68.7279C179.749 68.7413 183.914 68.7617 184.726 68.9667C185.762 69.5266 186.34 70.3924 186.277 71.2892C186.243 71.7736 185.984 72.6643 184.632 73.1866C183.879 73.4779 182.678 73.5687 176.637 73.5687C174.721 73.5687 173.243 73.5193 172.139 73.4568Z" fill="#FFE81F"/>
<path d="M121.84 56.0961L139.186 100.522L125.051 100.58L122.705 93.9072L97.4329 93.7267L95.2028 100.407L81.2106 100.276L98.3371 56.1153L121.84 56.0961ZM110.473 62.6098C110.437 62.7374 108.259 68.0592 106.072 73.3805C103.868 78.746 101.656 84.1114 101.626 84.1532C101.626 84.1536 101.625 84.1536 101.626 84.1536C101.626 84.1536 101.626 84.1536 101.626 84.1532C101.684 84.1379 109.511 84.1225 114.528 84.1225C116.876 84.1225 118.607 84.126 118.64 84.1337C118.64 84.1352 118.64 84.1356 118.64 84.1356C118.64 84.1356 118.64 84.1352 118.64 84.1344C118.64 84.1344 118.64 84.1344 118.64 84.1337C118.552 83.9309 110.499 62.8689 110.473 62.6098C110.474 62.6083 110.474 62.6075 110.474 62.6075C110.473 62.6075 110.473 62.6083 110.473 62.6098ZM124.288 53.0282L121.837 53.0302L98.3345 53.0497L95.8822 53.0516L95.0818 55.1158L77.9554 99.2769L76.3956 103.299L81.1753 103.343L95.1675 103.473L97.7649 103.498L98.505 101.282L99.9972 96.8122L120.169 96.9559L121.766 101.497L122.525 103.657L125.069 103.647L139.202 103.59L144.022 103.57L142.44 99.5175L125.094 55.0916L124.288 53.0282ZM106.583 81.0596C107.236 79.4772 108.114 77.3383 109.307 74.4337C109.682 73.5231 110.024 72.6895 110.338 71.9253C110.623 72.675 110.934 73.4905 111.271 74.3774C111.55 75.1078 112.772 78.3133 113.82 81.0566C110.703 81.0566 108.357 81.057 106.583 81.0596Z" fill="#FFE81F"/>
<path d="M127.686 3.07057V14.0314H103.026V47.554H88.323V14.0046L59.5378 14.0774C56.0678 14.0774 55.6028 16.5378 55.6028 17.4806C55.6028 18.638 56.4509 19.7954 61.1092 25.0459C64.1316 28.4568 66.9085 31.86 67.2744 32.6035C69.2721 36.6966 66.6889 43.0738 61.9832 45.6646C58.6294 47.5091 59.2024 47.5543 34.2968 47.5543C33.0164 47.5543 31.6723 47.5543 30.2533 47.5543H3.44423V35.2406H45.593L46.8372 34.4703C47.6767 33.9491 48.1632 33.2324 48.3484 32.2513C48.6067 30.841 48.4732 30.657 43.2681 25.4372C37.1159 19.2669 36.4658 18.1402 36.7844 14.2004C37.146 9.70494 41.6493 3.17443 49.5194 3.17443L127.686 3.07057ZM131.13 0L127.681 0.00459935L49.5138 0.108075C45.0113 0.108075 40.8296 1.83958 37.7423 4.98373C35.2392 7.53309 33.5963 10.8968 33.3483 13.9812C32.9294 19.1592 34.2684 21.0303 40.6914 27.4722C42.5556 29.3413 44.3281 31.1192 44.9196 31.8742C44.9102 31.9045 44.9016 31.924 44.8964 31.9351C44.8899 31.9397 44.88 31.9466 44.8663 31.9551L44.5124 32.1743H3.44423H0V35.2403V47.554V50.6199H3.44423H30.2533H32.3788H34.2968C46.5763 50.6199 52.6373 50.6096 56.2081 50.3766C60.2938 50.1102 61.5975 49.4863 63.5503 48.4067L63.794 48.2722C69.9342 44.8915 73.0986 36.8411 70.4336 31.381C69.6113 29.7108 64.4049 23.8134 63.8138 23.1465C62.1795 21.3043 59.4818 18.264 59.0548 17.384C59.0651 17.3101 59.0853 17.2334 59.1069 17.1802C59.1779 17.1641 59.3139 17.1426 59.5378 17.1426L84.8787 17.0786V47.5532V50.6192H88.323H103.026H106.47V47.5532V17.0966H127.686H131.13V14.0306V3.0698V0V0Z" fill="#FFE81F"/>
<path d="M167.751 3.4266L185.05 47.9675L170.941 47.8985L168.651 41.2262L143.491 41.1265L141.244 47.5536H126.877L143.986 3.4266H167.751V3.4266ZM147.598 31.6416L164.733 31.6224C164.734 31.6224 164.734 31.6228 164.734 31.6228C164.792 31.6228 156.406 9.70072 156.35 9.68539C156.289 9.68347 147.404 31.6416 147.598 31.6416ZM170.205 0.360626H167.751H143.986H141.532L140.731 2.42632L123.622 46.5537L122.045 50.6199H126.878H141.244H143.78L144.533 48.4649L146.023 44.2028L166.1 44.2822L167.649 48.7945L168.39 50.9518L170.925 50.9645L185.033 51.0334L189.897 51.0572L188.308 46.9657L171.009 2.42479L170.205 0.360626ZM152.383 28.5702C153.445 25.8772 154.924 22.1865 156.263 18.8695C157.533 22.1823 158.937 25.8618 159.961 28.5618L152.383 28.5702Z" fill="#FFE81F"/>
<path d="M216.336 3.4266C227.495 3.4266 235.24 3.5684 236.73 3.79835C240.174 4.33106 243.287 5.96752 245.62 8.48161C248.061 11.1107 248.621 12.3677 248.939 15.9702C249.396 21.0559 246.679 25.4441 241.319 28.2916C239.756 29.1233 238.151 29.9319 237.75 30.0929C237.134 30.342 237.217 30.5796 238.318 31.7293C239.028 32.469 240.26 33.5229 241.052 34.071L242.499 35.0712L269.226 35.4123L269.488 47.5536H253.102C240.427 47.5536 236.371 47.4501 235.183 47.0937C233.405 46.5571 229.126 43.3302 220.429 35.9642L214.22 30.7061L214.286 47.5536H198.338V3.4266H216.336ZM213.986 23.2673H222.455C230.695 23.2673 230.953 23.2443 232.129 22.4586C234.23 21.0559 234.974 19.6111 234.751 17.3921C234.523 15.1041 233.533 13.9122 231.048 12.9541C229.649 12.4099 228.301 12.3217 221.696 12.3217H213.986V23.2673V23.2673ZM216.336 0.360626H198.339H194.895V3.4266V47.5536V50.6195H198.339H214.287H217.744L217.732 47.5428L217.694 37.8789L218.055 38.1851C228.813 47.296 231.986 49.3656 234.079 49.9971C235.686 50.4797 238.376 50.6195 253.103 50.6195H269.489H273L272.933 47.4945L272.671 35.3533L272.607 32.3893L269.277 32.3467L243.703 32.0206L243.167 31.65C242.996 31.5316 242.79 31.3752 242.569 31.1982C242.761 31.097 242.937 31.0038 243.089 30.9234C249.548 27.4922 252.933 21.9527 252.375 15.7265C252.003 11.5265 251.161 9.63442 248.276 6.52859C245.441 3.4745 241.551 1.43218 237.32 0.77798C234.97 0.415046 223.164 0.360626 216.336 0.360626ZM217.43 15.3877H221.696C227.735 15.3877 228.932 15.477 229.669 15.7637C231.068 16.3033 231.21 16.565 231.32 17.6634C231.43 18.7549 231.278 19.1941 230.062 20.0058C230.022 20.0323 229.991 20.053 229.966 20.0694C229.163 20.2017 226.183 20.2017 222.455 20.2017H217.43L217.43 15.3877Z" fill="#FFE81F"/>
</svg>
