<svg width="101" height="104" viewBox="0 0 101 104" fill="none" xmlns="http://www.w3.org/2000/svg">
<path d="M41.8114 40.2277C40.8373 35.0163 41.5162 29.6308 43.7531 24.8243C45.9901 20.0177 49.6732 16.0304 54.2876 13.4199C58.9019 10.8094 64.2168 9.70622 69.4889 10.2646C74.761 10.823 79.7268 13.0151 83.6919 16.5343C87.657 20.0535 90.4232 24.7239 91.6036 29.8924C92.784 35.0609 92.3197 40.4692 90.2755 45.3608C88.2313 50.2525 84.7095 54.383 80.2026 57.1748C75.6956 59.9667 70.4289 61.2802 65.1387 60.9317L65.6812 52.696C69.2545 52.9314 72.812 52.0441 75.8563 50.1584C78.9005 48.2726 81.2794 45.4826 82.6601 42.1784C84.0409 38.8743 84.3545 35.2213 83.5572 31.7301C82.7599 28.239 80.8914 25.0843 78.2131 22.7072C75.5349 20.3301 72.1807 18.8495 68.6195 18.4723C65.0584 18.0951 61.4685 18.8402 58.3516 20.6035C55.2348 22.3669 52.747 25.0601 51.236 28.3068C49.725 31.5534 49.2665 35.1911 49.9244 38.7112L41.8114 40.2277Z" fill="#4F4B4B" fill-opacity="0.99"/>
<path d="M88.1122 68.0988L47.5726 87.9561L41.4834 88.8353L34.9836 85.4743L65.3522 52.7075L88.1122 68.0988Z" fill="#4F4B4B" fill-opacity="0.99"/>
<path d="M33.1619 16.3186L17.2951 57.5842L17.0979 63.5351L21.0644 69.7156L49.6217 38.9033L33.1619 16.3186Z" fill="#4F4B4B" fill-opacity="0.99"/>
<path d="M57.8494 48.2727C58.6541 49.0294 58.6931 50.2951 57.9364 51.0998L43.3466 66.6167C42.59 67.4215 41.3243 67.4604 40.5195 66.7038L37.684 64.0377C36.8793 63.2811 36.8403 62.0153 37.597 61.2106L52.1868 45.6937C52.9434 44.889 54.2091 44.85 55.0139 45.6066L56.4316 46.9397L57.8494 48.2727Z" fill="#4F4B4B" fill-opacity="0.99"/>
<path d="M66.8388 69.4237C73.5844 69.3495 80.1566 67.2765 85.7241 63.4671C91.2916 59.6577 95.6044 54.2829 98.1172 48.0223C100.63 41.7617 101.23 34.8966 99.8411 28.2951C98.4523 21.6936 95.137 15.6522 90.3146 10.9348C85.4922 6.21749 79.3793 3.03608 72.7488 1.79293C66.1183 0.549774 59.2681 1.30071 53.0643 3.95077C46.8606 6.60083 41.5821 11.031 37.8962 16.681C34.2103 22.3311 32.2826 28.9472 32.3568 35.6928L41.4924 35.5923C41.438 30.6535 42.8494 25.8095 45.548 21.6728C48.2466 17.5362 52.1113 14.2927 56.6533 12.3525C61.1953 10.4122 66.2107 9.86244 71.0652 10.7726C75.9197 11.6828 80.3952 14.012 83.9259 17.4658C87.4566 20.9196 89.8838 25.3428 90.9007 30.176C91.9175 35.0093 91.4783 40.0356 89.6386 44.6192C87.7988 49.2028 84.6412 53.138 80.565 55.927C76.4887 58.7161 71.677 60.2338 66.7382 60.2881L66.8388 69.4237Z" fill="#4F4B4B" fill-opacity="0.99"/>
<ellipse cx="66.4611" cy="35.3158" rx="9.57432" ry="8.97592" transform="rotate(169.413 66.4611 35.3158)" fill="#4F4B4B" fill-opacity="0.99"/>
<path d="M53.5305 45.0023C53.5312 42.3584 55.0766 40.5147 57.7205 40.5155C58.6167 45.3029 61.3099 43.8077 63.1047 45.3042C63.1039 47.9481 60.9601 49.7916 58.3162 49.7908C55.6724 49.79 53.5297 47.6461 53.5305 45.0023Z" fill="#2F2A2A"/>
</svg>
